<?xml version="1.0" standalone="no"?><!DOCTYPE svg PUBLIC "-//W3C//DTD SVG 1.1//EN" "http://www.w3.org/Graphics/SVG/1.1/DTD/svg11.dtd"><svg version="1.1" id="图层_1" x="0px" y="0px" width="500.2px" height="236.4px" viewBox="0 0 500.2 236.4" enable-background="new 0 0 500.2 236.4" xml:space="preserve" xmlns:xlink="http://www.w3.org/1999/xlink" xmlns:xml="http://www.w3.org/XML/1998/namespace" style="backface-visibility:hidden;block-size:237.047px;bottom:181.984px;display:block;height:237.047px;inline-size:502.219px;inset-block-end:181.984px;inset-block-start:180.976px;inset-inline-end:371.844px;inset-inline-start:125.949px;left:125.949px;overflow-x:visible;overflow-y:visible;perspective-origin:251.109px 118.516px;position:absolute;right:371.844px;top:180.976px;transform:matrix(1, 0, 0, 1, 0, 0);transform-origin:251.109px 118.523px;transition-property:none;width:502.219px;" xmlns="http://www.w3.org/2000/svg"><defs class="defs" style="block-size:auto;height:auto;inline-size:auto;overflow-x:visible;overflow-y:visible;perspective-origin:0px 0px;transform-origin:0px 0px;transition-property:none;width:auto;"/>
  <g style="block-size:auto;height:auto;inline-size:auto;overflow-x:visible;overflow-y:visible;perspective-origin:0px 0px;transform-origin:0px 0px;transition-property:none;width:auto;">
    <path fill="#F5B41A" d="M197.599,141.2c17.8-52.8,42.6-87,80.8-107.8c-19.801-20.6-47.4-33.4-78.2-33.4&#10;&#9;&#9;c-49.8,0-91.6,33.4-104.6,79.2c-5.2-1-10.6-1.6-16.2-1.6C35.599,77.4-0.001,113-0.001,157c0,43.801,35.6,79.4,79.4,79.4&#10;&#9;&#9;c0.4,0,0.6,0,1,0c0.2,0,0.4,0,0.6,0C118.399,236.4,182.199,187,197.599,141.2z" class="color c1" style="block-size:auto;d:path(&quot;M 197.599 141.2 C 215.399 88.4 240.199 54.2 278.399 33.4 C 258.598 12.8 230.999 -0.00000762939 200.199 -0.00000762939 C 150.399 -0.00000762939 108.599 33.4 95.599 79.2 C 90.399 78.2 84.999 77.6 79.399 77.6 C 35.599 77.4 -0.001 113 -0.001 157 C -0.001 200.801 35.599 236.4 79.399 236.4 C 79.799 236.4 79.999 236.4 80.399 236.4 C 80.599 236.4 80.799 236.4 80.999 236.4 C 118.399 236.4 182.199 187 197.599 141.2 Z&quot;);fill:rgb(245, 180, 26);height:auto;inline-size:auto;overflow-x:visible;overflow-y:visible;perspective-origin:0px 0px;transform-origin:0px 0px;transition-property:none;width:auto;"/>
    <path fill="#00AED9" d="M439.599,113c-6.801,0-13.199,1.2-19.199,3.2c-6.801-42.399-43.602-75-87.801-75&#10;&#9;&#9;c-14.398,0-28,3.4-40.199,9.601c0,0,0,0,0-0.2c-35.199,18.2-57.4,48.6-73.8,97.2c-13,39-39.2,68.399-78.8,88.399&#10;&#9;&#9;c80.6-0.399,301.2-1.6,304-2.6c31.4-2.2,56.4-28.2,56.4-60.2C500,140.2,473,113,439.599,113z" class="color c2" style="block-size:auto;d:path(&quot;M 439.599 113 C 432.798 113 426.4 114.2 420.4 116.2 C 413.599 73.801 376.798 41.2 332.599 41.2 C 318.201 41.2 304.599 44.6 292.4 50.801 C 292.4 50.801 292.4 50.801 292.4 50.601 C 257.201 68.801 235 99.201 218.6 147.801 C 205.6 186.801 179.4 216.2 139.8 236.2 C 220.4 235.801 441 234.6 443.8 233.6 C 475.2 231.4 500.2 205.4 500.2 173.4 C 500 140.2 473 113 439.599 113 Z&quot;);fill:rgb(0, 174, 217);height:auto;inline-size:auto;overflow-x:visible;overflow-y:visible;perspective-origin:0px 0px;transform-origin:0px 0px;transition-property:none;width:auto;"/>
  </g>
</svg>